<svg version="1.1" xmlns="http://www.w3.org/2000/svg" viewBox="-14.882964787057928 -1.7860780180389433 29.765929574115855 3.5721560360778866" fill="none" stroke="black" stroke-width="0.6%" vector-effect="non-scaling-stroke">
    <path d="M -13.88296 -0.01891 L -13.88296 -0.76888 L 0.03079 0.0361 L 13.88296 0.01891 L -0.03079 -0.78608 L -13.88296 -0.76888" />
    <path d="M 0.03079 0.78608 L 0.03079 0.0361" />
    <path d="M -13.88296 -0.01891 L 0.03079 0.78608 L 13.88296 0.76888 L 13.88296 0.01891" />
    <path d="M 1.46877 -0.58237 L -0.27045 -0.683" />
    <path d="M -10.16486 -0.67071 A 5 0.04237 360 0 1 -10.21766 -0.67686 A 5 0.04237 360 0 1 -0.27045 -0.683" />
    <path d="M -10.16486 -0.67071 L -8.42564 -0.57009" />
    <path d="M 1.46877 -0.58237 A 5 0.04237 360 0 1 1.52156 -0.57623 A 5 0.04237 360 0 1 -8.42564 -0.57009" />
    <path d="M 1.46877 -0.57009 L 1.46877 -0.58237" />
    <path d="M -0.27045 -0.54373 L -0.27045 -0.683" />
</svg>