<svg version="1.1" xmlns="http://www.w3.org/2000/svg" viewBox="-14.882964787057928 -1.7860780180389433 29.765929574115855 3.5721560360778866" fill="none" stroke="black" stroke-width="0.6%" vector-effect="non-scaling-stroke">
    <path d="M -13.88296 -0.01891 L -13.88296 -0.76888 L 0.03079 0.0361 L 13.88296 0.01891 L -0.03079 -0.78608 L -13.88296 -0.76888" />
    <path d="M 0.03079 0.78608 L 0.03079 0.0361" />
    <path d="M -13.88296 -0.01891 L 0.03079 0.78608 L 13.88296 0.76888 L 13.88296 0.01891" />
    <path d="M 0.45422 -0.64107 L -0.99513 -0.72492" />
    <path d="M -10.88954 -0.71264 A 5 0.04237 360 0 1 -10.94233 -0.71878 A 5 0.04237 360 0 1 -0.99513 -0.72492" />
    <path d="M -10.88954 -0.71264 L -9.44019 -0.62879" />
    <path d="M 0.45422 -0.64107 A 5 0.04237 360 0 1 0.50702 -0.63493 A 5 0.04237 360 0 1 -9.44019 -0.62879" />
    <path d="M 0.45422 -0.62879 L 0.45422 -0.64107" />
    <path d="M -0.99513 -0.60465 L -0.99513 -0.72492" />
</svg>